<?xml version="1.0" standalone="no"?><!DOCTYPE svg PUBLIC "-//W3C//DTD SVG 1.1//EN" "http://www.w3.org/Graphics/SVG/1.1/DTD/svg11.dtd"><svg t="1534408121462" class="icon" style="" viewBox="0 0 1024 1024" version="1.1" xmlns="http://www.w3.org/2000/svg" p-id="3649" xmlns:xlink="http://www.w3.org/1999/xlink" width="16" height="16"><defs><style type="text/css"></style></defs><path d="M866.602715 67.715241 271.332197 67.715241c-51.094702 0-92.505857 41.410132-92.505857 92.505857l0 20.939915-58.4666 0c-30.6603 0-55.503105 24.842805-55.503105 55.503105l0 55.503105c0 30.6603 24.842805 55.503105 55.503105 55.503105L178.82634 347.670328l0 53.949726-58.4666 0c-30.6603 0-55.503105 24.842805-55.503105 55.503105l0 55.503105c0 30.6603 24.842805 55.504128 55.503105 55.504128L178.82634 568.130392l0 55.503105-58.4666 0c-30.6603 0-55.503105 24.841781-55.503105 55.503105l0 55.503105c0 30.6603 24.842805 55.503105 55.503105 55.503105L178.82634 790.142811l0 73.001641c0 51.095725 41.411155 92.505857 92.505857 92.505857l595.270519 0c51.095725 0 92.505857-41.411155 92.505857-92.505857L959.108572 160.221098C959.109596 109.125373 917.69844 67.715241 866.602715 67.715241zM229.578234 717.170846c0 11.363815-13.135158 20.561291-29.305443 20.561291L178.82634 737.732138l-33.786501 0c-16.170285 0-29.305443-9.196453-29.305443-20.561291l0-20.561291c0-11.363815 13.135158-20.561291 29.305443-20.561291L178.82634 676.048263l21.446451 0c16.170285 0 29.305443 9.196453 29.305443 20.561291L229.578234 717.170846zM229.578234 495.157403c0 11.363815-13.135158 20.560268-29.305443 20.560268L178.82634 515.717671l-33.786501 0c-16.170285 0-29.305443-9.196453-29.305443-20.560268l0-20.561291c0-11.363815 13.135158-20.560268 29.305443-20.560268L178.82634 454.035844l21.446451 0c16.170285 0 29.305443 9.196453 29.305443 20.560268L229.578234 495.157403zM229.578234 274.697339c0 11.363815-13.135158 20.560268-29.305443 20.560268L178.82634 295.257607l-33.786501 0c-16.170285 0-29.305443-9.196453-29.305443-20.560268l0-20.561291c0-11.363815 13.135158-20.561291 29.305443-20.561291L178.82634 233.574756l21.446451 0c16.170285 0 29.305443 9.196453 29.305443 20.561291L229.578234 274.697339zM901.672442 899.644761l-611.333356 0L290.339086 122.604362l611.333356 0L901.672442 899.644761z" p-id="3650"></path><path d="M772.344958 233.574756 419.66657 233.574756c-10.225899 0-18.501376 8.275477-18.501376 18.501376l0 19.676132c0 10.225899 8.274454 18.501376 18.501376 18.501376l352.678388 0c10.225899 0 18.501376-8.274454 18.501376-18.501376l0-19.676132C790.846334 241.850234 782.570857 233.574756 772.344958 233.574756z" p-id="3651"></path><path d="M772.344958 401.621077 419.66657 401.621077c-10.225899 0-18.501376 8.274454-18.501376 18.501376l0 19.676132c0 10.225899 8.274454 18.501376 18.501376 18.501376l352.678388 0c10.225899 0 18.501376-8.274454 18.501376-18.501376l0-19.676132C790.846334 409.896554 782.570857 401.621077 772.344958 401.621077z" p-id="3652"></path><path d="M772.344958 566.956659 419.66657 566.956659c-10.225899 0-18.501376 8.275477-18.501376 18.501376l0 19.676132c0 10.225899 8.274454 18.501376 18.501376 18.501376l352.678388 0c10.225899 0 18.501376-8.275477 18.501376-18.501376l0-19.676132C790.846334 575.232137 782.570857 566.956659 772.344958 566.956659z" p-id="3653"></path><path d="M772.344958 733.468021 419.66657 733.468021c-10.225899 0-18.501376 8.274454-18.501376 18.500353l0 19.676132c0 10.225899 8.274454 18.501376 18.501376 18.501376l352.678388 0c10.225899 0 18.501376-8.275477 18.501376-18.501376l0-19.676132C790.846334 741.742475 782.570857 733.468021 772.344958 733.468021z" p-id="3654"></path></svg>