<?xml version="1.0" standalone="no"?><!DOCTYPE svg PUBLIC "-//W3C//DTD SVG 1.1//EN" "http://www.w3.org/Graphics/SVG/1.1/DTD/svg11.dtd"><svg t="1534145691113" class="icon" style="" viewBox="0 0 1024 1024" version="1.1" xmlns="http://www.w3.org/2000/svg" p-id="1824" xmlns:xlink="http://www.w3.org/1999/xlink" width="16" height="16"><defs><style type="text/css"></style></defs><path d="M993.870796 774.990716c0 13.131065-11.966543 23.791869-26.683732 23.791869L296.684096 798.782585c-14.71719 0-26.683732-10.661827-26.683732-23.791869 0-13.110599 11.966543-23.772426 26.683732-23.772426l670.502967 0C981.883787 751.21829 993.870796 761.880117 993.870796 774.990716z" p-id="1825"></path><path d="M175.955454 774.990716c0 13.131065-11.966543 23.791869-26.683732 23.791869L56.793494 798.782585c-14.696724 0-26.663266-10.661827-26.663266-23.791869 0-13.110599 11.966543-23.772426 26.663266-23.772426l92.479251 0C163.988912 751.21829 175.955454 761.880117 175.955454 774.990716z" p-id="1826"></path><path d="M175.955454 249.009284c0 13.110599-11.966543 23.772426-26.683732 23.772426L56.793494 272.78171c-14.696724 0-26.663266-10.660804-26.663266-23.772426 0-13.131065 11.966543-23.791869 26.663266-23.791869l92.479251 0C163.988912 225.216391 175.955454 235.878219 175.955454 249.009284z" p-id="1827"></path><path d="M985.196229 249.009284c0 13.110599-11.966543 23.772426-26.683732 23.772426L288.010553 272.78171c-14.71719 0-26.663266-10.660804-26.663266-23.772426 0-13.131065 11.966543-23.791869 26.663266-23.791869l670.502967 0C973.229686 225.216391 985.196229 235.878219 985.196229 249.009284z" p-id="1828"></path><path d="M990.978932 511.989767c0 13.131065-11.966543 23.791869-26.663266 23.791869L293.812699 535.781636c-14.71719 0-26.683732-10.661827-26.683732-23.791869 0-13.110599 11.966543-23.772426 26.683732-23.772426l670.501944 0C979.01239 488.217341 990.978932 498.879168 990.978932 511.989767z" p-id="1829"></path><path d="M175.955454 511.989767c0 13.131065-11.966543 23.791869-26.683732 23.791869L56.793494 535.781636c-14.696724 0-26.663266-10.661827-26.663266-23.791869 0-13.110599 11.966543-23.772426 26.663266-23.772426l92.479251 0C163.988912 488.217341 175.955454 498.879168 175.955454 511.989767z" p-id="1830"></path></svg>