<?xml version="1.0" standalone="no"?><!DOCTYPE svg PUBLIC "-//W3C//DTD SVG 1.1//EN" "http://www.w3.org/Graphics/SVG/1.1/DTD/svg11.dtd"><svg t="1534411507756" class="icon" style="" viewBox="0 0 1024 1024" version="1.1" xmlns="http://www.w3.org/2000/svg" p-id="4364" xmlns:xlink="http://www.w3.org/1999/xlink" width="16" height="16"><defs><style type="text/css"></style></defs><path d="M303.999988 459.428561l409.142848 0c13.714285 0 25.142857-11.428571 25.142857-25.142857 0-13.714285-11.428571-25.142857-25.142857-25.142857L303.999988 409.142848c-13.714285 0-25.142857 11.428571-25.142857 25.142857C278.857132 447.99999 290.285703 459.428561 303.999988 459.428561z" p-id="4365"></path><path d="M303.999988 621.714272l409.142848 0c13.714285 0 25.142857-11.428571 25.142857-25.142857 0-13.714285-11.428571-25.142857-25.142857-25.142857L303.999988 571.428559c-13.714285 0-25.142857 11.428571-25.142857 25.142857C278.857132 610.285701 290.285703 621.714272 303.999988 621.714272z" p-id="4366"></path><path d="M303.999988 783.999983l409.142848 0c13.714285 0 25.142857-11.428571 25.142857-25.142857 0-13.714285-11.428571-25.142857-25.142857-25.142857L303.999988 733.714269c-13.714285 0-25.142857 11.428571-25.142857 25.142857C278.857132 772.571411 290.285703 783.999983 303.999988 783.999983z" p-id="4367"></path><path d="M322.285702 260.571423l381.714277 0c18.285714 0 31.999999-13.714285 31.999999-31.999999L735.999978 79.999998c0-4.571428-4.571428-9.142857-9.142857-9.142857l-89.142855 0C612.57141 27.428571 564.571411 0 511.999983 0c-52.571427 0-98.285712 27.428571-123.428569 70.857141L299.42856 70.857141C292.571417 70.857141 290.285703 75.42857 290.285703 79.999998L290.285703 228.571423C290.285703 246.857137 303.999988 260.571423 322.285702 260.571423zM340.571416 121.142854l29.714285 0 36.571428 0 13.714285 0c4.571428-20.571428 16-38.857142 31.999999-50.285713l0 0c16-13.714285 36.571428-20.571428 59.42857-20.571428 22.857142 0 43.42857 6.857143 59.42857 20.571428l0 0c16 13.714285 27.428571 29.714285 31.999999 50.285713l11.428571 0L655.99998 121.142854l31.999999 0 0 79.999998c0 4.571428-4.571428 9.142857-9.142857 9.142857L349.714273 210.28571c-4.571428 0-9.142857-4.571428-9.142857-9.142857L340.571416 121.142854z" p-id="4368"></path><path d="M939.428545 207.999995c0-59.42857-47.999999-109.714283-109.714283-109.714283l-52.571427 0 0 50.285713 52.571427 0c31.999999 0 59.42857 27.428571 59.42857 59.42857l0 692.571413 0 0 0 9.142857c0 31.999999-27.428571 59.42857-59.42857 59.42857l-635.428557 0c-31.999999 0-59.42857-27.428571-59.42857-59.42857L134.857135 210.28571c0-31.999999 27.428571-59.42857 59.42857-59.42857l52.571427 0L246.857132 100.571426 194.285705 100.571426C134.857135 100.571426 84.571422 148.571425 84.571422 207.999995l0 109.714283c0 0 0 0 0 2.285714s0 0 0 2.285714l0 591.999987c0 61.714284 50.285713 109.714283 109.714283 109.714283l635.428557 0c61.714284 0 109.714283-50.285713 109.714283-109.714283L939.428545 207.999995 939.428545 207.999995z" p-id="4369"></path></svg>