<?xml version="1.0" standalone="no"?><!DOCTYPE svg PUBLIC "-//W3C//DTD SVG 1.1//EN" "http://www.w3.org/Graphics/SVG/1.1/DTD/svg11.dtd"><svg t="1534388947688" class="icon" style="" viewBox="0 0 1024 1024" version="1.1" xmlns="http://www.w3.org/2000/svg" p-id="2209" xmlns:xlink="http://www.w3.org/1999/xlink" width="16" height="16"><defs><style type="text/css"></style></defs><path d="M963.008 604.992v-3.008q-0.992-8.992-4-18.016-4-10.016-10.016-19.008-4-4.992-7.008-8L462.976 73.952q-4-4.992-8.992-8-12-7.008-24.992-7.008H137.984q-31.008 0-52.992 22.016t-22.016 52v298.016q0 4.992 0.992 10.016l0.992 2.016q0.992 4 2.016 7.008 0.992 0.992 0.992 2.016 4 7.008 10.016 12.992l476.992 472q8.992 8 18.016 12.992 16.992 8.992 35.008 8.992 15.008 0 28-6.016 14.016-4.992 24.992-16l280-276.992q3.008-2.016 4.992-4.992 3.008-3.008 4.992-7.008 2.016-3.008 3.008-4.992 2.016-3.008 3.008-4.992 0-2.016 0.992-3.008 4.992-14.016 4.992-30.016zM264.512 336q-29.504 0-50.496-20.992t-20.992-50.496 20.992-50.496 50.496-20.992 50.496 20.992 20.992 50.496-20.992 50.496-50.496 20.992z" p-id="2210"></path></svg>