<?xml version="1.0" standalone="no"?><!DOCTYPE svg PUBLIC "-//W3C//DTD SVG 1.1//EN" "http://www.w3.org/Graphics/SVG/1.1/DTD/svg11.dtd"><svg t="1533712167104" class="icon" style="" viewBox="0 0 1025 1024" version="1.1" xmlns="http://www.w3.org/2000/svg" p-id="2201" xmlns:xlink="http://www.w3.org/1999/xlink" width="16.015625" height="16"><defs><style type="text/css"></style></defs><path d="M1024 194.41664c-37.6832 16.71168-78.17216 27.99616-120.66816 33.0752 43.37664-26.0096 76.67712-67.1744 92.3648-116.224-40.59136 24.08448-85.56544 41.55392-133.40672 50.97472-38.31808-40.83712-92.91776-66.33472-153.35424-66.33472-116.0192 0-210.08384 94.06464-210.08384 210.08384 0 16.46592 1.86368 32.50176 5.44768 47.88224-174.592-8.76544-329.40032-92.40576-433.00864-219.50464-18.08384 31.0272-28.44672 67.11296-28.44672 105.61536 0 72.88832 37.08928 137.19552 93.45024 174.85824-34.44736-1.08544-66.82624-10.5472-95.15008-26.27584-0.02048 0.88064-0.02048 1.76128-0.02048 2.64192 0 101.7856 72.41728 186.69568 168.52992 206.00832-17.63328 4.79232-36.18816 7.3728-55.35744 7.3728-13.53728 0-26.70592-1.31072-39.5264-3.76832 26.7264 83.456 104.32512 144.19968 196.25984 145.89952-71.90528 56.34048-162.48832 89.92768-260.9152 89.92768-16.95744 0-33.6896-1.00352-50.11456-2.94912 92.9792 59.61728 203.40736 94.39232 322.048 94.39232 386.41664 0 597.72928-320.12288 597.72928-597.74976 0-9.1136-0.2048-18.16576-0.6144-27.17696 41.0624-29.61408 76.67712-66.62144 104.83712-108.7488z" p-id="2202"></path></svg>